<svg xmlns="http://www.w3.org/2000/svg" viewBox="0 0 512 512" fill="none">
  <rect width="512" height="512" rx="112" fill="#fbf9f6"/>
  <path
    fill="#516447"
    d="M256 96c-6 0-12 3-16 9-52 76-68 168-44 244 8 26 24 48 46 62 22 14 48 18 74 12 76-16 132-92 144-172 2-14 2-28 0-42-8-68-52-128-116-158-28-14-58-21-88-21v66zm0 66c36 0 68 20 86 52-12 52-48 92-94 102-12 2-24 0-34-6-10-8-18-20-22-34-14-44-4-92 22-130 14-8 28-12 42-12z"
  />
  <path
    fill="#95a987"
    d="M188 320c20 48 64 80 118 80h6c40-4 76-24 102-54-4 32-22 60-50 76-36 22-82 24-122 4-40-20-64-60-68-106h14z"
  />
</svg>
